# xmcd
#
# Track frame offsets:
#	150
#	21670
#	41115
#	59197
#	78047
#	97320
#	117912
#	135090
#	158882
#	180372
#	199237
#	222375
#
# Disc length: 3231 seconds
#
# Revision: 1
# Processed by: cddbd v1.5PL3 Copyright (c) Steve Scherf et al.
# Submitted via: CDex 1.50Beta5
#
DISCID=ad0c9d0c
DTITLE=MASCHERA - iNTERFACE
DYEAR=1998
DGENRE=Rock
TTITLE0=iNTERFACE
TTITLE1=Reality for Realism
TTITLE2=[ekou]
TTITLE3=HYPERDELIC AGE
TTITLE4=超絶の嬰児
TTITLE5=Faithless face
TTITLE6=MESS-AGE
TTITLE7=Powder
TTITLE8=ラストフォトグラフ
TTITLE9=Still I Love You
TTITLE10=乱夢
TTITLE11=ゆらり
EXTD=
EXTT0=
EXTT1=
EXTT2=
EXTT3=
EXTT4=
EXTT5=
EXTT6=
EXTT7=
EXTT8=
EXTT9=
EXTT10=
EXTT11=
PLAYORDER=
